<?xml version="1.0" encoding="UTF-8"?> <svg xmlns="http://www.w3.org/2000/svg" id="Design" viewBox="0 0 373.05 69"> <defs> <style>.cls-1{fill:#28a019;}.cls-2{fill:#fff;}</style> </defs> <path d="M93,17.47h8.35V22.6h.38a9,9,0,0,1,8.69-5.53c6.7,0,12.36,5.21,12.36,15.71,0,10.22-5.42,15.73-12.38,15.73a9,9,0,0,1-8.67-5.39h-.26V59.46H93Zm14.71,24.3c4.16,0,6.42-3.7,6.42-9s-2.22-8.93-6.42-8.93-6.42,3.48-6.42,8.93S103.64,41.77,107.71,41.77Z"></path> <path d="M126.73,32.78c0-10.5,5.67-15.71,12.37-15.71a9,9,0,0,1,8.69,5.53h.26V17.47h8.45V48h-8.35V43.12h-.36a9,9,0,0,1-8.67,5.39C132.16,48.51,126.73,43,126.73,32.78Zm21.5,0c0-5.45-2.31-8.93-6.43-8.93s-6.42,3.64-6.42,8.93,2.27,9,6.42,9S148.23,38.19,148.23,32.74Z"></path> <path d="M171.53,48h-8.47V17.47h8.07v5.39h.36c1.37-3.56,4.65-5.79,9.19-5.79,6.36,0,10.53,4.38,10.53,11.49V48h-8.47V30.07c0-3.73-2-6-5.42-6s-5.77,2.31-5.79,6.24Z"></path> <path d="M195.9,32.78c0-10.5,5.67-15.71,12.37-15.71A9,9,0,0,1,217,22.6h.26V7.29h8.45V48h-8.35V43.12H217a9,9,0,0,1-8.67,5.39C201.33,48.51,195.9,43,195.9,32.78Zm21.49,0c0-5.45-2.3-8.93-6.42-8.93s-6.42,3.64-6.42,8.93,2.27,9,6.42,9S217.39,38.19,217.39,32.74Z"></path> <path d="M230.46,32.78c0-10.5,5.67-15.71,12.37-15.71a9,9,0,0,1,8.69,5.53h.26V17.47h8.45V48h-8.35V43.12h-.36a9,9,0,0,1-8.67,5.39C235.89,48.51,230.46,43,230.46,32.78Zm21.5,0c0-5.45-2.31-8.93-6.42-8.93s-6.43,3.64-6.43,8.93,2.27,9,6.43,9S252,38.19,252,32.74Z"></path> <path d="M283.28,23.83h-5.74V38.62c0,2.35,1.17,3,2.86,3a11.64,11.64,0,0,0,2.11-.28l1.33,6.3a16.46,16.46,0,0,1-4.59.8c-6.15.25-10.22-2.71-10.18-8.69V23.83h-4.18V17.47h4.18V10.15h8.47v7.32h5.74Z"></path> <path d="M288.85,17.47h8.21V22.8h.32C298.49,19,301.3,17,304.71,17a12.69,12.69,0,0,1,2.67.3v7.52a14.23,14.23,0,0,0-3.58-.46,6.16,6.16,0,0,0-6.48,6.34V48h-8.47Z"></path> <path d="M309.77,32.86c0-9.47,5.76-15.79,15-15.79s15,6.32,15,15.79-5.77,15.74-15,15.74S309.77,42.26,309.77,32.86Zm21.45-.06c0-5.33-2.19-9.27-6.38-9.27s-6.47,3.94-6.47,9.27S320.56,42,324.84,42,331.22,38.13,331.22,32.8Z"></path> <path d="M353.37,48h-8.48V17.47H353v5.39h.35c1.38-3.56,4.66-5.79,9.19-5.79,6.36,0,10.54,4.38,10.54,11.49V48h-8.47V30.07c0-3.73-2-6-5.43-6s-5.77,2.31-5.78,6.24Z"></path> <circle class="cls-1" cx="34.5" cy="34.5" r="34.5"></circle> <circle cx="48.69" cy="23.02" r="7.25"></circle> <circle cx="20.32" cy="23.02" r="7.25"></circle> <circle class="cls-2" cx="34.5" cy="34.5" r="17.23"></circle> </svg> 